M48
INCH
T01C0.0150
T02C0.0200
T03C0.0250
T04C0.0400
T05C0.0360
%
T01
X-000358Y-001562
X-001030Y+001208
X-001036Y+001653
X-000034Y+001360
X+001490Y-000747
X+001859Y+000359
X-000351Y+001562
X+003194Y-000561
X-000050Y-001733
X-000981Y-003345
X+000896Y-003216
X-000354Y+008322
X-002934Y-002304
X-001612Y+003267
X+000189Y-000691
X+000299Y-002943
X-003531Y+000941
X-003338Y-000594
X-001654Y+000362
X+000261Y-001539
T02
X+006966Y-001201
X+000686Y-008746
X-000606Y-008746
X-008350Y-000269
X-000325Y+008322
X+008818Y+000376
X+001244Y-006237
X-009156Y-000716
X-000041Y-006204
X+007994Y-000749
X+000647Y+009128
X-000610Y+009128
X-009147Y-000718
X+010207Y-000466
X-003181Y+000535
X-005960Y-001224
X+002440Y+002964
X-009147Y+000772
X+000398Y-007489
T03
X-003160Y+001966
X-002828Y+002309
X-002489Y+002657
X-002146Y+002993
X+003594Y+003668
X+003995Y+003290
T04
X-002554Y+003881
X-003262Y+003174
X-003969Y+002467
X-004676Y+001760
X+001701Y-004284
X+002408Y-003577
X+003115Y-002870
X+003822Y-002163
X+004529Y-001455
T05
X+000956Y+004991
X+001867Y+005887
X+000254Y+005698
X+001165Y+006595
X+001681Y+004261
X+002591Y+005157
X+006205Y+001734
X+005294Y+000837
X+006906Y+001026
X+005995Y+000129
X+005480Y+002464
X+004569Y+001567
M30
